<mxfile host="app.diagrams.net" agent="Mozilla/5.0 (Windows NT 10.0; Win64; x64) AppleWebKit/537.36 (KHTML, like Gecko) Chrome/133.0.0.0 Safari/537.36 Edg/133.0.0.0" version="26.0.14">
  <diagram name="PÃ¡gina-1" id="A_mSpw_jLjphIg9lFs7v">
    <mxGraphModel dx="1158" dy="628" grid="1" gridSize="10" guides="1" tooltips="1" connect="1" arrows="1" fold="1" page="1" pageScale="1" pageWidth="827" pageHeight="1169" math="0" shadow="0">
      <root>
        <mxCell id="0" />
        <mxCell id="1" parent="0" />
        <mxCell id="K3_4Xx0aOwG_4yaCL3X9-71" value="" style="rounded=1;whiteSpace=wrap;html=1;fillColor=#fa6800;fontColor=#000000;strokeColor=#C73500;" vertex="1" parent="1">
          <mxGeometry x="627" y="670" width="200" height="370" as="geometry" />
        </mxCell>
        <mxCell id="K3_4Xx0aOwG_4yaCL3X9-72" value="" style="rounded=1;whiteSpace=wrap;html=1;fillColor=#e1d5e7;strokeColor=#9673a6;" vertex="1" parent="1">
          <mxGeometry x="300" y="700" width="248.5" height="370" as="geometry" />
        </mxCell>
        <mxCell id="K3_4Xx0aOwG_4yaCL3X9-70" value="" style="rounded=1;whiteSpace=wrap;html=1;fillColor=#fff2cc;strokeColor=#d6b656;" vertex="1" parent="1">
          <mxGeometry x="20" y="658.5" width="200" height="370" as="geometry" />
        </mxCell>
        <mxCell id="K3_4Xx0aOwG_4yaCL3X9-45" value="" style="rounded=1;whiteSpace=wrap;html=1;" vertex="1" parent="1">
          <mxGeometry x="445.5" y="9" width="120" height="60" as="geometry" />
        </mxCell>
        <mxCell id="K3_4Xx0aOwG_4yaCL3X9-2" value="" style="shape=mxgraph.cisco.servers.fileserver;sketch=0;html=1;pointerEvents=1;dashed=0;fillColor=#036897;strokeColor=#ffffff;strokeWidth=2;verticalLabelPosition=bottom;verticalAlign=top;align=center;outlineConnect=0;" vertex="1" parent="1">
          <mxGeometry x="395" y="7" width="43" height="62" as="geometry" />
        </mxCell>
        <mxCell id="K3_4Xx0aOwG_4yaCL3X9-3" value="Servidor local&amp;nbsp;&lt;div&gt;de inventario&lt;/div&gt;" style="text;html=1;align=center;verticalAlign=middle;resizable=0;points=[];autosize=1;strokeColor=none;fillColor=none;" vertex="1" parent="1">
          <mxGeometry x="455.5" y="18" width="100" height="40" as="geometry" />
        </mxCell>
        <mxCell id="K3_4Xx0aOwG_4yaCL3X9-4" value="" style="shape=mxgraph.cisco.switches.workgroup_switch;sketch=0;html=1;pointerEvents=1;dashed=0;fillColor=#036897;strokeColor=#ffffff;strokeWidth=2;verticalLabelPosition=bottom;verticalAlign=top;align=center;outlineConnect=0;" vertex="1" parent="1">
          <mxGeometry x="379.75" y="300" width="80" height="40" as="geometry" />
        </mxCell>
        <mxCell id="K3_4Xx0aOwG_4yaCL3X9-5" value="" style="shape=mxgraph.cisco.security.firewall;sketch=0;html=1;pointerEvents=1;dashed=0;fillColor=#036897;strokeColor=#ffffff;strokeWidth=2;verticalLabelPosition=bottom;verticalAlign=top;align=center;outlineConnect=0;" vertex="1" parent="1">
          <mxGeometry x="402" y="110" width="29" height="67" as="geometry" />
        </mxCell>
        <mxCell id="K3_4Xx0aOwG_4yaCL3X9-6" value="Firewall" style="text;html=1;align=center;verticalAlign=middle;resizable=0;points=[];autosize=1;strokeColor=none;fillColor=none;" vertex="1" parent="1">
          <mxGeometry x="428" y="115" width="60" height="30" as="geometry" />
        </mxCell>
        <mxCell id="K3_4Xx0aOwG_4yaCL3X9-7" value="Switch 1" style="text;html=1;align=center;verticalAlign=middle;resizable=0;points=[];autosize=1;strokeColor=none;fillColor=none;" vertex="1" parent="1">
          <mxGeometry x="454.75" y="300" width="70" height="30" as="geometry" />
        </mxCell>
        <mxCell id="K3_4Xx0aOwG_4yaCL3X9-8" value="" style="shape=mxgraph.cisco.routers.router;sketch=0;html=1;pointerEvents=1;dashed=0;fillColor=#036897;strokeColor=#ffffff;strokeWidth=2;verticalLabelPosition=bottom;verticalAlign=top;align=center;outlineConnect=0;" vertex="1" parent="1">
          <mxGeometry x="454.75" y="388.5" width="78" height="53" as="geometry" />
        </mxCell>
        <mxCell id="K3_4Xx0aOwG_4yaCL3X9-9" value="" style="shape=mxgraph.cisco.routers.router;sketch=0;html=1;pointerEvents=1;dashed=0;fillColor=#036897;strokeColor=#ffffff;strokeWidth=2;verticalLabelPosition=bottom;verticalAlign=top;align=center;outlineConnect=0;" vertex="1" parent="1">
          <mxGeometry x="306.75" y="388.5" width="78" height="53" as="geometry" />
        </mxCell>
        <mxCell id="K3_4Xx0aOwG_4yaCL3X9-10" value="" style="endArrow=none;html=1;rounded=0;exitX=0.5;exitY=0;exitDx=0;exitDy=0;exitPerimeter=0;entryX=0.5;entryY=0.98;entryDx=0;entryDy=0;entryPerimeter=0;" edge="1" parent="1" source="K3_4Xx0aOwG_4yaCL3X9-8" target="K3_4Xx0aOwG_4yaCL3X9-4">
          <mxGeometry width="50" height="50" relative="1" as="geometry">
            <mxPoint x="414.75" y="398.5" as="sourcePoint" />
            <mxPoint x="464.75" y="348.5" as="targetPoint" />
          </mxGeometry>
        </mxCell>
        <mxCell id="K3_4Xx0aOwG_4yaCL3X9-11" value="" style="endArrow=none;html=1;rounded=0;entryX=0.5;entryY=0.98;entryDx=0;entryDy=0;entryPerimeter=0;" edge="1" parent="1" source="K3_4Xx0aOwG_4yaCL3X9-9" target="K3_4Xx0aOwG_4yaCL3X9-4">
          <mxGeometry width="50" height="50" relative="1" as="geometry">
            <mxPoint x="264.75" y="438.5" as="sourcePoint" />
            <mxPoint x="314.75" y="388.5" as="targetPoint" />
          </mxGeometry>
        </mxCell>
        <mxCell id="K3_4Xx0aOwG_4yaCL3X9-12" value="Router 1" style="text;html=1;align=center;verticalAlign=middle;resizable=0;points=[];autosize=1;strokeColor=none;fillColor=none;" vertex="1" parent="1">
          <mxGeometry x="238.25" y="398.5" width="70" height="30" as="geometry" />
        </mxCell>
        <mxCell id="K3_4Xx0aOwG_4yaCL3X9-13" value="Router 2" style="text;html=1;align=center;verticalAlign=middle;resizable=0;points=[];autosize=1;strokeColor=none;fillColor=none;" vertex="1" parent="1">
          <mxGeometry x="524.75" y="400" width="70" height="30" as="geometry" />
        </mxCell>
        <mxCell id="K3_4Xx0aOwG_4yaCL3X9-14" value="&lt;font style=&quot;font-size: 10px;&quot;&gt;Redundancia&lt;/font&gt;" style="text;html=1;align=center;verticalAlign=middle;resizable=0;points=[];autosize=1;strokeColor=none;fillColor=none;" vertex="1" parent="1">
          <mxGeometry x="379.75" y="370" width="80" height="30" as="geometry" />
        </mxCell>
        <mxCell id="K3_4Xx0aOwG_4yaCL3X9-15" value="" style="endArrow=none;html=1;rounded=0;entryX=0;entryY=0.5;entryDx=0;entryDy=0;entryPerimeter=0;exitX=1;exitY=0.5;exitDx=0;exitDy=0;exitPerimeter=0;" edge="1" parent="1" source="K3_4Xx0aOwG_4yaCL3X9-9" target="K3_4Xx0aOwG_4yaCL3X9-8">
          <mxGeometry width="50" height="50" relative="1" as="geometry">
            <mxPoint x="264.75" y="438.5" as="sourcePoint" />
            <mxPoint x="314.75" y="388.5" as="targetPoint" />
          </mxGeometry>
        </mxCell>
        <mxCell id="K3_4Xx0aOwG_4yaCL3X9-16" value="" style="shape=mxgraph.cisco.switches.workgroup_switch;sketch=0;html=1;pointerEvents=1;dashed=0;fillColor=#036897;strokeColor=#ffffff;strokeWidth=2;verticalLabelPosition=bottom;verticalAlign=top;align=center;outlineConnect=0;" vertex="1" parent="1">
          <mxGeometry x="364.25" y="508.5" width="101" height="50" as="geometry" />
        </mxCell>
        <mxCell id="K3_4Xx0aOwG_4yaCL3X9-17" value="" style="endArrow=none;html=1;rounded=0;entryX=0.5;entryY=1;entryDx=0;entryDy=0;entryPerimeter=0;exitX=0.5;exitY=0;exitDx=0;exitDy=0;exitPerimeter=0;" edge="1" parent="1" source="K3_4Xx0aOwG_4yaCL3X9-16" target="K3_4Xx0aOwG_4yaCL3X9-8">
          <mxGeometry width="50" height="50" relative="1" as="geometry">
            <mxPoint x="264.75" y="528.5" as="sourcePoint" />
            <mxPoint x="314.75" y="478.5" as="targetPoint" />
          </mxGeometry>
        </mxCell>
        <mxCell id="K3_4Xx0aOwG_4yaCL3X9-18" value="" style="endArrow=none;html=1;rounded=0;entryX=0.5;entryY=1;entryDx=0;entryDy=0;entryPerimeter=0;exitX=0.5;exitY=0;exitDx=0;exitDy=0;exitPerimeter=0;" edge="1" parent="1" source="K3_4Xx0aOwG_4yaCL3X9-16" target="K3_4Xx0aOwG_4yaCL3X9-9">
          <mxGeometry width="50" height="50" relative="1" as="geometry">
            <mxPoint x="274.75" y="588.5" as="sourcePoint" />
            <mxPoint x="324.75" y="538.5" as="targetPoint" />
          </mxGeometry>
        </mxCell>
        <mxCell id="K3_4Xx0aOwG_4yaCL3X9-19" value="Switch 2" style="text;html=1;align=center;verticalAlign=middle;resizable=0;points=[];autosize=1;strokeColor=none;fillColor=none;" vertex="1" parent="1">
          <mxGeometry x="462.75" y="518.5" width="70" height="30" as="geometry" />
        </mxCell>
        <mxCell id="K3_4Xx0aOwG_4yaCL3X9-20" value="" style="points=[[0.005,0.09,0],[0.08,0,0],[0.76,0.25,0],[1,0.92,0],[0.91,0.995,0],[0.57,0.995,0],[0.045,0.955,0],[0.005,0.43,0]];verticalLabelPosition=bottom;sketch=0;html=1;verticalAlign=top;aspect=fixed;align=center;pointerEvents=1;shape=mxgraph.cisco19.3g_4g_indicator;fillColor=#005073;strokeColor=none;" vertex="1" parent="1">
          <mxGeometry x="422.75" y="210" width="40" height="40" as="geometry" />
        </mxCell>
        <mxCell id="K3_4Xx0aOwG_4yaCL3X9-22" value="" style="sketch=0;points=[[0.5,0,0],[1,0.5,0],[0.5,1,0],[0,0.5,0],[0.145,0.145,0],[0.8555,0.145,0],[0.855,0.8555,0],[0.145,0.855,0]];verticalLabelPosition=bottom;html=1;verticalAlign=top;aspect=fixed;align=center;pointerEvents=1;shape=mxgraph.cisco19.lock;fillColor=#005073;strokeColor=none;" vertex="1" parent="1">
          <mxGeometry x="389.75" y="590" width="50" height="50" as="geometry" />
        </mxCell>
        <mxCell id="K3_4Xx0aOwG_4yaCL3X9-23" value="" style="endArrow=none;dashed=1;html=1;dashPattern=1 3;strokeWidth=2;rounded=0;" edge="1" parent="1">
          <mxGeometry width="50" height="50" relative="1" as="geometry">
            <mxPoint x="361.5" y="100" as="sourcePoint" />
            <mxPoint x="471.5" y="100" as="targetPoint" />
          </mxGeometry>
        </mxCell>
        <mxCell id="K3_4Xx0aOwG_4yaCL3X9-26" value="" style="endArrow=none;html=1;rounded=0;entryX=0.5;entryY=1;entryDx=0;entryDy=0;entryPerimeter=0;exitX=0.5;exitY=0;exitDx=0;exitDy=0;exitPerimeter=0;" edge="1" parent="1" source="K3_4Xx0aOwG_4yaCL3X9-5" target="K3_4Xx0aOwG_4yaCL3X9-2">
          <mxGeometry width="50" height="50" relative="1" as="geometry">
            <mxPoint x="370" y="220" as="sourcePoint" />
            <mxPoint x="420" y="170" as="targetPoint" />
          </mxGeometry>
        </mxCell>
        <mxCell id="K3_4Xx0aOwG_4yaCL3X9-27" value="Servicios de internet" style="text;html=1;align=center;verticalAlign=middle;resizable=0;points=[];autosize=1;strokeColor=none;fillColor=none;" vertex="1" parent="1">
          <mxGeometry x="454.75" y="215" width="130" height="30" as="geometry" />
        </mxCell>
        <mxCell id="K3_4Xx0aOwG_4yaCL3X9-28" value="" style="endArrow=none;dashed=1;html=1;dashPattern=1 3;strokeWidth=2;rounded=0;" edge="1" parent="1">
          <mxGeometry width="50" height="50" relative="1" as="geometry">
            <mxPoint x="366.5" y="190" as="sourcePoint" />
            <mxPoint x="476.5" y="190" as="targetPoint" />
          </mxGeometry>
        </mxCell>
        <mxCell id="K3_4Xx0aOwG_4yaCL3X9-29" value="" style="endArrow=none;html=1;rounded=0;entryX=0.5;entryY=1;entryDx=0;entryDy=0;entryPerimeter=0;" edge="1" parent="1" target="K3_4Xx0aOwG_4yaCL3X9-5">
          <mxGeometry width="50" height="50" relative="1" as="geometry">
            <mxPoint x="440" y="210" as="sourcePoint" />
            <mxPoint x="320" y="210" as="targetPoint" />
          </mxGeometry>
        </mxCell>
        <mxCell id="K3_4Xx0aOwG_4yaCL3X9-30" value="" style="endArrow=none;html=1;rounded=0;exitX=0.5;exitY=1;exitDx=0;exitDy=0;exitPerimeter=0;entryX=0.894;entryY=0.125;entryDx=0;entryDy=0;entryPerimeter=0;" edge="1" parent="1" source="K3_4Xx0aOwG_4yaCL3X9-5" target="K3_4Xx0aOwG_4yaCL3X9-33">
          <mxGeometry width="50" height="50" relative="1" as="geometry">
            <mxPoint x="330" y="227" as="sourcePoint" />
            <mxPoint x="390" y="210" as="targetPoint" />
          </mxGeometry>
        </mxCell>
        <mxCell id="K3_4Xx0aOwG_4yaCL3X9-31" value="" style="endArrow=none;html=1;rounded=0;entryX=0.57;entryY=0.995;entryDx=0;entryDy=0;entryPerimeter=0;exitX=0.5;exitY=0;exitDx=0;exitDy=0;exitPerimeter=0;" edge="1" parent="1" source="K3_4Xx0aOwG_4yaCL3X9-4" target="K3_4Xx0aOwG_4yaCL3X9-20">
          <mxGeometry width="50" height="50" relative="1" as="geometry">
            <mxPoint x="370" y="300" as="sourcePoint" />
            <mxPoint x="420" y="250" as="targetPoint" />
          </mxGeometry>
        </mxCell>
        <mxCell id="K3_4Xx0aOwG_4yaCL3X9-32" value="" style="endArrow=none;html=1;rounded=0;entryX=0.64;entryY=1;entryDx=0;entryDy=0;entryPerimeter=0;exitX=0.5;exitY=0;exitDx=0;exitDy=0;exitPerimeter=0;" edge="1" parent="1" source="K3_4Xx0aOwG_4yaCL3X9-4" target="K3_4Xx0aOwG_4yaCL3X9-33">
          <mxGeometry width="50" height="50" relative="1" as="geometry">
            <mxPoint x="370" y="300" as="sourcePoint" />
            <mxPoint x="396.79999999999995" y="239.79999999999995" as="targetPoint" />
          </mxGeometry>
        </mxCell>
        <mxCell id="K3_4Xx0aOwG_4yaCL3X9-33" value="" style="points=[[0,0.58,0],[0.09,0.58,0],[0.36,0.39,0],[0.64,0.195,0],[0.91,0,0],[1,0,0],[1,0.25,0],[1,0.5,0],[1,0.75,0],[1,1,0],[0,1,0],[0.09,1,0],[0.36,1,0],[0.64,1,0],[0.91,1,0],[0,0.79,0]];verticalLabelPosition=bottom;sketch=0;html=1;verticalAlign=top;aspect=fixed;align=center;pointerEvents=1;shape=mxgraph.cisco19.wifi_indicator;fillColor=#005073;strokeColor=none;" vertex="1" parent="1">
          <mxGeometry x="364.25" y="205" width="40" height="40" as="geometry" />
        </mxCell>
        <mxCell id="K3_4Xx0aOwG_4yaCL3X9-34" value="Medidas de seguridad" style="text;html=1;align=center;verticalAlign=middle;resizable=0;points=[];autosize=1;strokeColor=none;fillColor=none;" vertex="1" parent="1">
          <mxGeometry x="438" y="600" width="140" height="30" as="geometry" />
        </mxCell>
        <mxCell id="K3_4Xx0aOwG_4yaCL3X9-35" value="" style="endArrow=none;html=1;rounded=0;entryX=0.5;entryY=0.98;entryDx=0;entryDy=0;entryPerimeter=0;exitX=0.5;exitY=0;exitDx=0;exitDy=0;exitPerimeter=0;" edge="1" parent="1" source="K3_4Xx0aOwG_4yaCL3X9-22" target="K3_4Xx0aOwG_4yaCL3X9-16">
          <mxGeometry width="50" height="50" relative="1" as="geometry">
            <mxPoint x="370" y="630" as="sourcePoint" />
            <mxPoint x="420" y="580" as="targetPoint" />
          </mxGeometry>
        </mxCell>
        <mxCell id="K3_4Xx0aOwG_4yaCL3X9-36" value="Piso 1&lt;div&gt;SERVICIO AL CLIENTE&lt;/div&gt;" style="text;html=1;align=center;verticalAlign=middle;resizable=0;points=[];autosize=1;strokeColor=none;fillColor=none;" vertex="1" parent="1">
          <mxGeometry x="30" y="670" width="150" height="40" as="geometry" />
        </mxCell>
        <mxCell id="K3_4Xx0aOwG_4yaCL3X9-37" value="Piso 2&lt;div&gt;ÃREAS FINANCIERAS&lt;/div&gt;" style="text;html=1;align=center;verticalAlign=middle;resizable=0;points=[];autosize=1;strokeColor=none;fillColor=none;" vertex="1" parent="1">
          <mxGeometry x="339.75" y="710" width="150" height="40" as="geometry" />
        </mxCell>
        <mxCell id="K3_4Xx0aOwG_4yaCL3X9-38" value="Piso 3&lt;div&gt;OPERACIONES&lt;/div&gt;" style="text;html=1;align=center;verticalAlign=middle;resizable=0;points=[];autosize=1;strokeColor=none;fillColor=none;" vertex="1" parent="1">
          <mxGeometry x="662" y="670" width="110" height="40" as="geometry" />
        </mxCell>
        <mxCell id="K3_4Xx0aOwG_4yaCL3X9-39" value="" style="shape=mxgraph.cisco.routers.router;sketch=0;html=1;pointerEvents=1;dashed=0;fillColor=#036897;strokeColor=#ffffff;strokeWidth=2;verticalLabelPosition=bottom;verticalAlign=top;align=center;outlineConnect=0;" vertex="1" parent="1">
          <mxGeometry x="66" y="730" width="78" height="53" as="geometry" />
        </mxCell>
        <mxCell id="K3_4Xx0aOwG_4yaCL3X9-40" value="" style="shape=mxgraph.cisco.routers.router;sketch=0;html=1;pointerEvents=1;dashed=0;fillColor=#036897;strokeColor=#ffffff;strokeWidth=2;verticalLabelPosition=bottom;verticalAlign=top;align=center;outlineConnect=0;" vertex="1" parent="1">
          <mxGeometry x="678" y="730" width="78" height="53" as="geometry" />
        </mxCell>
        <mxCell id="K3_4Xx0aOwG_4yaCL3X9-41" value="" style="shape=mxgraph.cisco.routers.router;sketch=0;html=1;pointerEvents=1;dashed=0;fillColor=#036897;strokeColor=#ffffff;strokeWidth=2;verticalLabelPosition=bottom;verticalAlign=top;align=center;outlineConnect=0;" vertex="1" parent="1">
          <mxGeometry x="375.75" y="780" width="78" height="53" as="geometry" />
        </mxCell>
        <mxCell id="K3_4Xx0aOwG_4yaCL3X9-46" value="" style="endArrow=none;html=1;rounded=0;entryX=0.5;entryY=1;entryDx=0;entryDy=0;entryPerimeter=0;exitX=0.464;exitY=-0.005;exitDx=0;exitDy=0;exitPerimeter=0;" edge="1" parent="1" source="K3_4Xx0aOwG_4yaCL3X9-72" target="K3_4Xx0aOwG_4yaCL3X9-22">
          <mxGeometry width="50" height="50" relative="1" as="geometry">
            <mxPoint x="280" y="580" as="sourcePoint" />
            <mxPoint x="420" y="670" as="targetPoint" />
          </mxGeometry>
        </mxCell>
        <mxCell id="K3_4Xx0aOwG_4yaCL3X9-47" value="" style="endArrow=none;html=1;rounded=0;entryX=0.5;entryY=1;entryDx=0;entryDy=0;entryPerimeter=0;exitX=0.462;exitY=-0.007;exitDx=0;exitDy=0;exitPerimeter=0;" edge="1" parent="1" source="K3_4Xx0aOwG_4yaCL3X9-71" target="K3_4Xx0aOwG_4yaCL3X9-22">
          <mxGeometry width="50" height="50" relative="1" as="geometry">
            <mxPoint x="670" y="540" as="sourcePoint" />
            <mxPoint x="616" y="643" as="targetPoint" />
          </mxGeometry>
        </mxCell>
        <mxCell id="K3_4Xx0aOwG_4yaCL3X9-48" value="" style="endArrow=none;html=1;rounded=0;entryX=0.5;entryY=1;entryDx=0;entryDy=0;entryPerimeter=0;exitX=0.5;exitY=0;exitDx=0;exitDy=0;" edge="1" parent="1" source="K3_4Xx0aOwG_4yaCL3X9-70" target="K3_4Xx0aOwG_4yaCL3X9-22">
          <mxGeometry width="50" height="50" relative="1" as="geometry">
            <mxPoint x="104" y="640" as="sourcePoint" />
            <mxPoint x="413.75" y="620" as="targetPoint" />
          </mxGeometry>
        </mxCell>
        <mxCell id="K3_4Xx0aOwG_4yaCL3X9-52" value="" style="shape=mxgraph.cisco.computers_and_peripherals.pc;sketch=0;html=1;pointerEvents=1;dashed=0;fillColor=#036897;strokeColor=#ffffff;strokeWidth=2;verticalLabelPosition=bottom;verticalAlign=top;align=center;outlineConnect=0;" vertex="1" parent="1">
          <mxGeometry x="66" y="850" width="78" height="70" as="geometry" />
        </mxCell>
        <mxCell id="K3_4Xx0aOwG_4yaCL3X9-53" value="" style="shape=mxgraph.cisco.computers_and_peripherals.pc;sketch=0;html=1;pointerEvents=1;dashed=0;fillColor=#036897;strokeColor=#ffffff;strokeWidth=2;verticalLabelPosition=bottom;verticalAlign=top;align=center;outlineConnect=0;" vertex="1" parent="1">
          <mxGeometry x="678" y="850" width="78" height="70" as="geometry" />
        </mxCell>
        <mxCell id="K3_4Xx0aOwG_4yaCL3X9-54" value="" style="shape=mxgraph.cisco.computers_and_peripherals.pc;sketch=0;html=1;pointerEvents=1;dashed=0;fillColor=#036897;strokeColor=#ffffff;strokeWidth=2;verticalLabelPosition=bottom;verticalAlign=top;align=center;outlineConnect=0;" vertex="1" parent="1">
          <mxGeometry x="375" y="880" width="78" height="70" as="geometry" />
        </mxCell>
        <mxCell id="K3_4Xx0aOwG_4yaCL3X9-55" value="" style="endArrow=none;html=1;rounded=0;entryX=0.5;entryY=1;entryDx=0;entryDy=0;entryPerimeter=0;exitX=0.5;exitY=0;exitDx=0;exitDy=0;exitPerimeter=0;" edge="1" parent="1" source="K3_4Xx0aOwG_4yaCL3X9-54" target="K3_4Xx0aOwG_4yaCL3X9-41">
          <mxGeometry width="50" height="50" relative="1" as="geometry">
            <mxPoint x="378.25" y="937" as="sourcePoint" />
            <mxPoint x="428.25" y="887" as="targetPoint" />
          </mxGeometry>
        </mxCell>
        <mxCell id="K3_4Xx0aOwG_4yaCL3X9-56" value="" style="endArrow=none;html=1;rounded=0;entryX=0.5;entryY=1;entryDx=0;entryDy=0;entryPerimeter=0;exitX=0.5;exitY=0;exitDx=0;exitDy=0;exitPerimeter=0;" edge="1" parent="1" source="K3_4Xx0aOwG_4yaCL3X9-52" target="K3_4Xx0aOwG_4yaCL3X9-39">
          <mxGeometry width="50" height="50" relative="1" as="geometry">
            <mxPoint x="164" y="877" as="sourcePoint" />
            <mxPoint x="214" y="827" as="targetPoint" />
          </mxGeometry>
        </mxCell>
        <mxCell id="K3_4Xx0aOwG_4yaCL3X9-57" value="" style="endArrow=none;html=1;rounded=0;entryX=0.5;entryY=1;entryDx=0;entryDy=0;entryPerimeter=0;exitX=0.5;exitY=0;exitDx=0;exitDy=0;exitPerimeter=0;" edge="1" parent="1" source="K3_4Xx0aOwG_4yaCL3X9-53" target="K3_4Xx0aOwG_4yaCL3X9-40">
          <mxGeometry width="50" height="50" relative="1" as="geometry">
            <mxPoint x="656.75" y="870" as="sourcePoint" />
            <mxPoint x="706.75" y="820" as="targetPoint" />
          </mxGeometry>
        </mxCell>
        <mxCell id="K3_4Xx0aOwG_4yaCL3X9-58" value="" style="endArrow=none;html=1;rounded=0;entryX=0;entryY=0.5;entryDx=0;entryDy=0;entryPerimeter=0;exitX=1;exitY=0.5;exitDx=0;exitDy=0;exitPerimeter=0;" edge="1" parent="1" source="K3_4Xx0aOwG_4yaCL3X9-41" target="K3_4Xx0aOwG_4yaCL3X9-40">
          <mxGeometry width="50" height="50" relative="1" as="geometry">
            <mxPoint x="510" y="827" as="sourcePoint" />
            <mxPoint x="430" y="780" as="targetPoint" />
          </mxGeometry>
        </mxCell>
        <mxCell id="K3_4Xx0aOwG_4yaCL3X9-59" value="" style="endArrow=none;html=1;rounded=0;entryX=0;entryY=0.5;entryDx=0;entryDy=0;entryPerimeter=0;exitX=1;exitY=0.5;exitDx=0;exitDy=0;exitPerimeter=0;" edge="1" parent="1" source="K3_4Xx0aOwG_4yaCL3X9-39" target="K3_4Xx0aOwG_4yaCL3X9-41">
          <mxGeometry width="50" height="50" relative="1" as="geometry">
            <mxPoint x="230" y="850" as="sourcePoint" />
            <mxPoint x="280" y="800" as="targetPoint" />
          </mxGeometry>
        </mxCell>
        <mxCell id="K3_4Xx0aOwG_4yaCL3X9-63" value="Router&lt;div&gt;servicio al cliente&lt;/div&gt;" style="text;html=1;align=center;verticalAlign=middle;resizable=0;points=[];autosize=1;strokeColor=none;fillColor=none;" vertex="1" parent="1">
          <mxGeometry x="110" y="767" width="110" height="40" as="geometry" />
        </mxCell>
        <mxCell id="K3_4Xx0aOwG_4yaCL3X9-64" value="Router&lt;div&gt;Ãreas financieras&lt;/div&gt;" style="text;html=1;align=center;verticalAlign=middle;resizable=0;points=[];autosize=1;strokeColor=none;fillColor=none;" vertex="1" parent="1">
          <mxGeometry x="422.75" y="820" width="120" height="40" as="geometry" />
        </mxCell>
        <mxCell id="K3_4Xx0aOwG_4yaCL3X9-65" value="Router&lt;div&gt;Operaciones&lt;/div&gt;" style="text;html=1;align=center;verticalAlign=middle;resizable=0;points=[];autosize=1;strokeColor=none;fillColor=none;" vertex="1" parent="1">
          <mxGeometry x="730" y="767" width="90" height="40" as="geometry" />
        </mxCell>
        <mxCell id="K3_4Xx0aOwG_4yaCL3X9-67" value="Usuarios&lt;div&gt;&amp;nbsp;conectados&lt;/div&gt;" style="text;html=1;align=center;verticalAlign=middle;resizable=0;points=[];autosize=1;strokeColor=none;fillColor=none;" vertex="1" parent="1">
          <mxGeometry x="54" y="930" width="90" height="40" as="geometry" />
        </mxCell>
        <mxCell id="K3_4Xx0aOwG_4yaCL3X9-68" value="Usuarios&lt;div&gt;&amp;nbsp;conectados&lt;/div&gt;" style="text;html=1;align=center;verticalAlign=middle;resizable=0;points=[];autosize=1;strokeColor=none;fillColor=none;" vertex="1" parent="1">
          <mxGeometry x="672" y="930" width="90" height="40" as="geometry" />
        </mxCell>
        <mxCell id="K3_4Xx0aOwG_4yaCL3X9-69" value="Usuarios&lt;div&gt;&amp;nbsp;conectados&lt;/div&gt;" style="text;html=1;align=center;verticalAlign=middle;resizable=0;points=[];autosize=1;strokeColor=none;fillColor=none;" vertex="1" parent="1">
          <mxGeometry x="369" y="960" width="90" height="40" as="geometry" />
        </mxCell>
      </root>
    </mxGraphModel>
  </diagram>
</mxfile>
